<?xml version="1.0" encoding="UTF-8"?>
<svg xmlns="http://www.w3.org/2000/svg" xmlns:xlink="http://www.w3.org/1999/xlink" width="350" height="444" viewBox="552.12 119.62 349.82 443.79">
<path fill-rule="nonzero" fill="rgb(100%, 76.078796%, 34.117126%)" fill-opacity="1" d="M 754.40625 493.859375 C 746.253906 493.859375 738.027344 492.976562 730.097656 491.195312 L 732.371094 481.070312 C 749.664062 484.949219 768.480469 484.136719 784 478.824219 C 796.925781 474.40625 813.933594 464.5625 821.535156 442.769531 C 825.210938 432.238281 832.855469 410.324219 859.328125 406.53125 L 860.800781 416.804688 C 842.140625 419.480469 835.804688 433.375 831.335938 446.191406 C 824.230469 466.558594 809.023438 481.238281 787.359375 488.648438 C 777.246094 492.105469 765.902344 493.859375 754.40625 493.859375 "/><path fill-rule="nonzero" fill="rgb(1.568604%, 0%, 0%)" fill-opacity="1" d="M 733.207031 489.203125 C 750.957031 492.726562 770.652344 491.617188 786.519531 486.191406 C 807.402344 479.050781 822.050781 464.921875 828.886719 445.335938 C 832.160156 435.953125 838.140625 418.8125 857.875 414.683594 L 857.136719 409.539062 C 834.277344 414.125 827.367188 433.929688 823.988281 443.625 C 816.039062 466.402344 798.3125 476.675781 784.839844 481.28125 C 769.644531 486.480469 751.386719 487.496094 734.34375 484.136719 Z M 754.40625 496.453125 C 745.953125 496.453125 737.585938 495.535156 729.53125 493.730469 L 727 493.160156 L 730.40625 477.972656 L 732.9375 478.539062 C 749.78125 482.320312 768.089844 481.527344 783.160156 476.371094 C 795.542969 472.136719 811.828125 462.722656 819.085938 441.917969 C 822.929688 430.902344 830.925781 407.980469 858.960938 403.960938 L 861.527344 403.59375 L 863.738281 419.003906 L 861.167969 419.371094 C 843.949219 421.839844 838.199219 434.398438 833.785156 447.046875 C 826.40625 468.195312 810.644531 483.425781 788.199219 491.101562 C 777.960938 494.601562 766.277344 496.453125 754.40625 496.453125 "/><path fill-rule="nonzero" fill="rgb(28.234863%, 70.980835%, 100%)" fill-opacity="1" d="M 874.433594 422.652344 C 863.453125 428.316406 855.730469 424.203125 851.492188 415.1875 C 847.253906 406.171875 848.160156 395.007812 858.863281 389.277344 C 869.5625 383.542969 883.695312 390.609375 893.199219 389.585938 C 890.4375 396.824219 879.550781 400.464844 877.238281 405.105469 C 882.367188 405.019531 887.316406 405.589844 892.148438 409.050781 C 883.328125 414.488281 880.207031 419.675781 874.433594 422.652344 "/><path fill-rule="nonzero" fill="rgb(1.568604%, 0%, 0%)" fill-opacity="1" d="M 874.433594 422.652344 L 874.453125 422.652344 Z M 869.019531 389.597656 C 865.835938 389.597656 862.800781 390.105469 860.085938 391.5625 C 850.160156 396.878906 850.519531 407.019531 853.839844 414.082031 C 855.832031 418.320312 858.464844 421.023438 861.660156 422.109375 C 864.929688 423.21875 868.828125 422.625 873.246094 420.347656 C 875.746094 419.058594 877.796875 417.207031 880.171875 415.0625 C 882.164062 413.265625 884.347656 411.292969 887.203125 409.234375 C 883.871094 407.835938 880.496094 407.644531 877.28125 407.703125 C 876.355469 407.6875 875.527344 407.257812 875.042969 406.492188 C 874.558594 405.726562 874.511719 404.761719 874.914062 403.949219 C 876.203125 401.367188 879.09375 399.335938 882.160156 397.183594 C 884.324219 395.664062 886.671875 394.015625 888.433594 392.15625 C 885.929688 391.941406 883.296875 391.472656 880.578125 390.988281 C 876.703125 390.300781 872.757812 389.597656 869.019531 389.597656 M 865.058594 427.847656 C 863.300781 427.847656 861.609375 427.574219 859.992188 427.023438 C 855.472656 425.488281 851.722656 421.777344 849.144531 416.292969 C 844.515625 406.449219 845.347656 393.570312 857.632812 386.988281 C 865.132812 382.972656 873.820312 384.519531 881.488281 385.878906 C 885.730469 386.636719 889.738281 387.347656 892.917969 387.007812 C 893.816406 386.90625 894.703125 387.285156 895.253906 388 C 895.804688 388.714844 895.945312 389.667969 895.621094 390.511719 C 893.765625 395.378906 889.183594 398.59375 885.140625 401.433594 C 884.484375 401.894531 883.820312 402.359375 883.191406 402.820312 C 886.582031 403.300781 890.15625 404.429688 893.660156 406.941406 C 894.367188 407.449219 894.773438 408.273438 894.742188 409.140625 C 894.710938 410.007812 894.246094 410.804688 893.507812 411.261719 C 889.167969 413.9375 886.238281 416.582031 883.652344 418.914062 C 881.117188 421.199219 878.71875 423.363281 875.625 424.957031 C 871.894531 426.882812 868.359375 427.847656 865.058594 427.847656 "/><path fill-rule="nonzero" fill="rgb(28.234863%, 70.980835%, 100%)" fill-opacity="1" d="M 739.933594 137.191406 C 747.609375 143.25 758.59375 145.351562 768.640625 142.683594 C 783.308594 138.792969 799.046875 145.152344 804.566406 157.191406 C 808.34375 165.445312 817.152344 171.335938 827.585938 172.589844 C 842.8125 174.417969 853.707031 185.875 852.445312 198.730469 C 851.582031 207.542969 856.46875 216.054688 865.222656 220.980469 C 877.992188 228.171875 881.878906 242.457031 874.09375 253.578125 C 868.757812 261.203125 868.757812 270.652344 874.09375 278.273438 C 881.878906 289.398438 877.992188 303.683594 865.222656 310.875 C 856.46875 315.800781 851.582031 324.3125 852.445312 333.121094 C 853.707031 345.976562 842.8125 357.433594 827.585938 359.265625 C 817.152344 360.519531 808.34375 366.410156 804.566406 374.660156 C 799.046875 386.703125 783.308594 393.058594 768.640625 389.167969 C 758.59375 386.503906 747.609375 388.605469 739.933594 394.664062 C 728.738281 403.507812 711.265625 403.507812 700.066406 394.664062 C 692.390625 388.605469 681.40625 386.503906 671.355469 389.167969 C 656.691406 393.058594 640.949219 386.703125 635.433594 374.660156 C 631.65625 366.410156 622.847656 360.519531 612.414062 359.265625 C 597.1875 357.433594 586.292969 345.976562 587.554688 333.121094 C 588.417969 324.3125 583.53125 315.800781 574.777344 310.875 C 562.007812 303.683594 558.121094 289.398438 565.90625 278.273438 C 571.242188 270.652344 571.242188 261.203125 565.90625 253.578125 C 558.121094 242.457031 562.007812 228.171875 574.777344 220.980469 C 583.53125 216.054688 588.417969 207.542969 587.554688 198.730469 C 586.292969 185.875 597.1875 174.417969 612.414062 172.589844 C 622.847656 171.335938 631.65625 165.445312 635.433594 157.191406 C 640.949219 145.152344 656.691406 138.792969 671.355469 142.683594 C 681.40625 145.351562 692.390625 143.25 700.066406 137.191406 C 711.265625 128.347656 728.738281 128.347656 739.933594 137.191406 "/><path fill-rule="nonzero" fill="rgb(1.568604%, 0%, 0%)" fill-opacity="1" d="M 680.097656 385.445312 C 687.988281 385.445312 695.742188 387.945312 701.671875 392.628906 C 711.949219 400.742188 728.050781 400.742188 738.328125 392.628906 C 746.625 386.078125 758.492188 383.789062 769.308594 386.660156 C 782.761719 390.226562 797.210938 384.484375 802.207031 373.582031 C 806.355469 364.523438 815.960938 358.046875 827.277344 356.6875 C 841.0625 355.03125 850.984375 344.789062 849.863281 333.375 C 848.898438 323.535156 854.296875 314.046875 863.949219 308.613281 C 869.804688 305.316406 873.75 300.34375 875.050781 294.613281 C 876.207031 289.527344 875.113281 284.253906 871.96875 279.761719 C 865.996094 271.230469 865.996094 260.625 871.96875 252.089844 C 875.113281 247.597656 876.207031 242.324219 875.050781 237.242188 C 873.75 231.511719 869.804688 226.539062 863.949219 223.242188 C 854.296875 217.808594 848.898438 208.320312 849.863281 198.476562 C 850.984375 187.0625 841.0625 176.824219 827.277344 175.164062 C 815.960938 173.804688 806.355469 167.332031 802.207031 158.273438 C 797.210938 147.367188 782.757812 141.625 769.308594 145.191406 C 758.492188 148.0625 746.621094 145.773438 738.328125 139.226562 C 728.050781 131.113281 711.949219 131.113281 701.671875 139.226562 C 693.375 145.773438 681.503906 148.0625 670.691406 145.191406 C 657.242188 141.625 642.785156 147.367188 637.792969 158.273438 C 633.644531 167.332031 624.039062 173.804688 612.722656 175.164062 C 598.9375 176.824219 589.015625 187.0625 590.136719 198.476562 C 591.101562 208.320312 585.703125 217.808594 576.050781 223.242188 C 570.195312 226.539062 566.25 231.511719 564.949219 237.242188 C 563.792969 242.324219 564.886719 247.597656 568.03125 252.089844 C 574.003906 260.625 574.003906 271.230469 568.03125 279.761719 C 564.886719 284.253906 563.792969 289.527344 564.949219 294.613281 C 566.25 300.34375 570.195312 305.316406 576.050781 308.613281 C 585.703125 314.046875 591.101562 323.535156 590.136719 333.375 C 589.015625 344.789062 598.9375 355.03125 612.722656 356.6875 C 624.039062 358.046875 633.644531 364.523438 637.792969 373.582031 C 642.785156 384.484375 657.238281 390.234375 670.691406 386.660156 C 673.777344 385.84375 676.949219 385.445312 680.097656 385.445312 M 720 403.855469 C 712.25 403.855469 704.496094 401.46875 698.457031 396.699219 C 691.417969 391.144531 681.292969 389.21875 672.023438 391.675781 C 656.199219 395.875 639.089844 388.875 633.074219 375.742188 C 629.671875 368.3125 621.636719 362.988281 612.101562 361.839844 C 595.492188 359.84375 583.574219 347.117188 584.972656 332.867188 C 585.734375 325.105469 581.339844 317.542969 573.503906 313.132812 C 566.355469 309.109375 561.519531 302.941406 559.886719 295.765625 C 558.402344 289.234375 559.785156 282.496094 563.78125 276.785156 C 568.46875 270.089844 568.46875 261.765625 563.78125 255.066406 C 559.785156 249.359375 558.402344 242.621094 559.886719 236.089844 C 561.519531 228.914062 566.355469 222.742188 573.503906 218.71875 C 581.339844 214.308594 585.734375 206.746094 584.972656 198.984375 C 583.574219 184.734375 595.492188 172.011719 612.101562 170.011719 C 621.636719 168.867188 629.671875 163.539062 633.074219 156.113281 C 639.089844 142.976562 656.199219 135.976562 672.023438 140.175781 C 681.289062 142.636719 691.417969 140.710938 698.457031 135.152344 C 710.539062 125.617188 729.460938 125.617188 741.542969 135.152344 C 748.582031 140.710938 758.714844 142.636719 767.976562 140.175781 C 783.804688 135.980469 800.910156 142.976562 806.921875 156.113281 C 810.328125 163.539062 818.363281 168.867188 827.898438 170.011719 C 844.507812 172.011719 856.425781 184.734375 855.027344 198.984375 C 854.269531 206.746094 858.660156 214.308594 866.496094 218.71875 C 873.644531 222.742188 878.480469 228.914062 880.113281 236.089844 C 881.597656 242.621094 880.214844 249.359375 876.21875 255.066406 C 871.53125 261.765625 871.53125 270.089844 876.21875 276.785156 C 880.214844 282.496094 881.597656 289.234375 880.113281 295.765625 C 878.480469 302.941406 873.644531 309.109375 866.496094 313.132812 C 858.660156 317.542969 854.269531 325.105469 855.027344 332.867188 C 856.425781 347.117188 844.507812 359.84375 827.898438 361.839844 C 818.363281 362.988281 810.328125 368.3125 806.921875 375.742188 C 800.910156 388.875 783.800781 395.878906 767.976562 391.675781 C 758.714844 389.21875 748.582031 391.144531 741.542969 396.699219 C 735.503906 401.46875 727.75 403.855469 720 403.855469 "/><path fill-rule="nonzero" fill="rgb(100%, 76.078796%, 34.117126%)" fill-opacity="1" d="M 663.308594 181.875 C 667.632812 189.371094 664.101562 199.511719 655.414062 204.527344 C 646.726562 209.542969 636.175781 207.535156 631.847656 200.039062 C 627.519531 192.542969 628.34375 182.207031 638.980469 176.066406 C 649.617188 169.925781 658.980469 174.382812 663.308594 181.875 "/><path fill-rule="nonzero" fill="rgb(1.568604%, 0%, 0%)" fill-opacity="1" d="M 648.890625 175.785156 C 646.242188 175.785156 643.339844 176.542969 640.277344 178.3125 C 635.992188 180.785156 633.246094 184.179688 632.328125 188.132812 C 631.523438 191.605469 632.152344 195.375 634.09375 198.742188 C 635.804688 201.703125 638.78125 203.722656 642.480469 204.425781 C 646.320312 205.15625 650.453125 204.394531 654.117188 202.28125 C 661.546875 197.988281 664.664062 189.417969 661.0625 183.175781 C 658.621094 178.949219 654.289062 175.785156 648.890625 175.785156 M 645.375 209.886719 C 644.074219 209.886719 642.78125 209.765625 641.507812 209.523438 C 636.304688 208.53125 632.078125 205.625 629.601562 201.335938 C 626.996094 196.828125 626.171875 191.722656 627.273438 186.960938 C 628.523438 181.570312 632.121094 177.027344 637.683594 173.820312 C 650.035156 166.6875 660.789062 172.324219 665.554688 180.578125 C 670.589844 189.300781 666.621094 201.054688 656.710938 206.773438 C 653.160156 208.824219 649.246094 209.886719 645.375 209.886719 "/><path fill-rule="nonzero" fill="rgb(100%, 76.078796%, 34.117126%)" fill-opacity="1" d="M 774.25 181.875 C 769.921875 189.371094 773.457031 199.511719 782.144531 204.527344 C 790.832031 209.542969 801.382812 207.535156 805.710938 200.039062 C 810.035156 192.542969 809.214844 182.207031 798.578125 176.066406 C 787.941406 169.925781 778.574219 174.382812 774.25 181.875 "/><path fill-rule="nonzero" fill="rgb(1.568604%, 0%, 0%)" fill-opacity="1" d="M 788.632812 175.773438 C 787.320312 175.773438 786.042969 175.960938 784.804688 176.339844 C 781.390625 177.378906 778.441406 179.808594 776.496094 183.175781 C 774.785156 186.136719 774.527344 189.722656 775.765625 193.277344 C 777.050781 196.96875 779.777344 200.167969 783.441406 202.28125 C 787.105469 204.398438 791.234375 205.160156 795.074219 204.425781 C 798.773438 203.722656 801.753906 201.703125 803.460938 198.742188 C 807.097656 192.449219 806.59375 183.691406 797.28125 178.3125 C 794.363281 176.628906 791.429688 175.773438 788.632812 175.773438 M 792.179688 209.886719 C 788.3125 209.886719 784.394531 208.824219 780.847656 206.773438 C 776.105469 204.039062 772.5625 199.851562 770.867188 194.984375 C 769.121094 189.984375 769.527344 184.867188 772.003906 180.578125 C 774.605469 176.070312 778.617188 172.800781 783.289062 171.375 C 788.582031 169.765625 794.3125 170.609375 799.875 173.820312 C 812.226562 180.949219 812.722656 193.082031 807.957031 201.335938 C 805.480469 205.625 801.25 208.53125 796.046875 209.523438 C 794.773438 209.765625 793.480469 209.886719 792.179688 209.886719 "/><path fill-rule="nonzero" fill="rgb(100%, 76.078796%, 34.117126%)" fill-opacity="1" d="M 665.765625 469.472656 C 667.351562 465.636719 668.960938 461.621094 670.707031 457.585938 L 707.007812 354.738281 L 674.925781 347.75 C 653.378906 378.472656 634.179688 420.640625 626.160156 457.996094 "/><path fill-rule="nonzero" fill="rgb(1.568604%, 0%, 0%)" fill-opacity="1" d="M 668.160156 470.464844 L 663.367188 468.480469 L 664.710938 465.203125 C 665.863281 462.398438 667.042969 459.523438 668.289062 456.636719 L 703.582031 356.648438 L 676.066406 350.652344 C 654.378906 382.023438 636.285156 423.199219 628.699219 458.542969 L 623.625 457.453125 C 631.460938 420.941406 650.304688 378.332031 672.800781 346.257812 L 673.792969 344.847656 L 710.4375 352.828125 L 673.089844 458.613281 C 671.839844 461.5 670.664062 464.371094 669.511719 467.175781 Z M 668.160156 470.464844 "/><path fill-rule="nonzero" fill="rgb(100%, 100%, 100%)" fill-opacity="1" d="M 626.160156 457.996094 C 625.28125 462.097656 624.496094 466.15625 623.898438 470.117188 C 621.332031 487.117188 627.191406 495.261719 638.316406 496.847656 C 652.691406 498.898438 659.011719 485.796875 665.761719 469.472656 "/><path fill-rule="nonzero" fill="rgb(1.568604%, 0%, 0%)" fill-opacity="1" d="M 641.257812 499.660156 C 640.199219 499.660156 639.097656 499.582031 637.949219 499.417969 C 632.175781 498.59375 627.761719 496.175781 624.820312 492.226562 C 621.023438 487.121094 619.847656 479.550781 621.332031 469.726562 C 621.878906 466.097656 622.628906 462.082031 623.625 457.453125 L 628.699219 458.542969 C 627.726562 463.066406 626.996094 466.976562 626.464844 470.503906 C 625.195312 478.90625 626.042969 485.171875 628.984375 489.128906 C 631.097656 491.964844 634.269531 493.648438 638.683594 494.28125 C 650.96875 496.042969 656.660156 484.691406 663.367188 468.480469 L 668.160156 470.464844 C 662.476562 484.207031 656.082031 499.65625 641.257812 499.660156 "/><path fill-rule="nonzero" fill="rgb(100%, 76.078796%, 34.117126%)" fill-opacity="1" d="M 771.792969 469.472656 C 770.207031 465.636719 768.59375 461.621094 766.851562 457.585938 L 730.546875 354.738281 L 762.632812 347.75 C 784.179688 378.472656 803.375 420.640625 811.398438 457.996094 "/><path fill-rule="nonzero" fill="rgb(1.568604%, 0%, 0%)" fill-opacity="1" d="M 769.394531 470.464844 L 768.042969 467.175781 C 766.890625 464.371094 765.714844 461.5 764.46875 458.613281 L 764.402344 458.449219 L 727.121094 352.828125 L 763.765625 344.847656 L 764.753906 346.257812 C 787.25 378.332031 806.09375 420.9375 813.933594 457.453125 L 808.859375 458.542969 C 801.269531 423.195312 783.175781 382.023438 761.492188 350.652344 L 733.972656 356.648438 L 769.265625 456.636719 C 770.511719 459.523438 771.691406 462.398438 772.84375 465.203125 L 774.191406 468.480469 Z M 769.394531 470.464844 "/><path fill-rule="nonzero" fill="rgb(100%, 100%, 100%)" fill-opacity="1" d="M 811.398438 457.996094 C 812.277344 462.097656 813.058594 466.15625 813.660156 470.117188 C 816.226562 487.117188 810.367188 495.261719 799.238281 496.847656 C 784.863281 498.898438 778.542969 485.796875 771.792969 469.472656 "/><path fill-rule="nonzero" fill="rgb(1.568604%, 0%, 0%)" fill-opacity="1" d="M 796.300781 499.660156 C 781.472656 499.660156 775.078125 484.207031 769.394531 470.464844 L 774.191406 468.480469 C 780.898438 484.691406 786.59375 496.035156 798.871094 494.28125 C 803.289062 493.648438 806.460938 491.964844 808.570312 489.128906 C 811.515625 485.171875 812.363281 478.90625 811.09375 470.503906 C 810.5625 466.984375 809.828125 463.070312 808.859375 458.542969 L 813.933594 457.453125 C 814.929688 462.085938 815.675781 466.101562 816.226562 469.726562 C 817.707031 479.550781 816.53125 487.121094 812.734375 492.226562 C 809.796875 496.175781 805.378906 498.59375 799.605469 499.417969 C 798.457031 499.582031 797.359375 499.660156 796.300781 499.660156 "/><path fill-rule="nonzero" fill="rgb(1.568604%, 0%, 0%)" fill-opacity="1" d="M 720.03125 503.777344 L 719.90625 503.773438 L 719.96875 501.183594 L 719.96875 498.589844 L 720.09375 503.773438 L 720.011719 502.027344 Z M 720.03125 503.777344 "/><path fill-rule="nonzero" fill="rgb(100%, 76.078796%, 34.117126%)" fill-opacity="1" d="M 761.691406 354.535156 L 676.417969 354.535156 C 658.695312 396.039062 651.078125 441.359375 654.914062 475 L 785.417969 475 C 789.257812 441.359375 779.550781 403.5625 761.691406 354.535156 "/><path fill-rule="nonzero" fill="rgb(28.234863%, 50.588989%, 100%)" fill-opacity="1" d="M 654.847656 475 C 656.3125 487.847656 657.6875 500.089844 657.6875 512.121094 C 657.6875 545.882812 664.503906 554.808594 684.464844 554.808594 C 704.425781 554.808594 711.277344 542.804688 711.277344 527.996094 L 711.277344 500.863281 C 714.160156 501.054688 717.0625 501.183594 720 501.183594 C 723.007812 501.183594 725.972656 501.050781 728.921875 500.851562 L 728.921875 527.996094 C 728.921875 542.804688 735.769531 554.808594 755.730469 554.808594 C 775.695312 554.808594 782.511719 545.882812 782.511719 512.121094 C 782.511719 500.089844 783.886719 487.847656 785.351562 475 Z M 654.847656 475 "/><path fill-rule="nonzero" fill="rgb(1.568604%, 0%, 0%)" fill-opacity="1" d="M 731.515625 498.074219 L 731.515625 527.996094 C 731.515625 544.066406 739.664062 552.210938 755.734375 552.210938 C 776.554688 552.210938 779.917969 540.394531 779.917969 512.121094 C 779.917969 500.710938 781.152344 489 782.445312 477.59375 L 657.753906 477.59375 C 659.046875 488.992188 660.28125 500.699219 660.28125 512.121094 C 660.28125 546.640625 667.410156 552.210938 684.464844 552.210938 C 700.535156 552.210938 708.683594 544.066406 708.683594 527.996094 L 708.683594 498.09375 L 711.449219 498.273438 C 714.683594 498.488281 717.398438 498.585938 720 498.585938 C 722.644531 498.585938 725.503906 498.480469 728.746094 498.261719 Z M 755.734375 557.402344 C 736.769531 557.402344 726.328125 546.957031 726.328125 527.996094 L 726.328125 503.605469 C 721.851562 503.832031 718.3125 503.835938 713.871094 503.613281 L 713.871094 527.996094 C 713.871094 546.957031 703.429688 557.402344 684.464844 557.402344 C 662.230469 557.402344 655.089844 546.398438 655.089844 512.121094 C 655.089844 500.027344 653.65625 487.453125 652.269531 475.292969 L 651.9375 472.402344 L 788.257812 472.402344 L 787.929688 475.292969 C 786.539062 487.460938 785.105469 500.042969 785.105469 512.121094 C 785.105469 546.398438 777.96875 557.402344 755.734375 557.402344 "/><path fill-rule="nonzero" fill="rgb(100%, 100%, 100%)" fill-opacity="1" d="M 720.199219 371.289062 C 692.421875 371.289062 669.902344 398.53125 669.902344 432.132812 C 669.902344 448.855469 675.480469 464 684.507812 474.996094 L 755.886719 474.996094 C 764.914062 464 770.496094 448.855469 770.496094 432.132812 C 770.496094 398.53125 747.976562 371.289062 720.199219 371.289062 "/><path fill-rule="nonzero" fill="rgb(1.568604%, 0%, 0%)" fill-opacity="1" d="M 787.722656 477.59375 L 652.597656 477.59375 L 652.335938 475.289062 C 649.5 450.425781 652.800781 419.621094 661.636719 388.558594 C 662.027344 387.179688 663.464844 386.378906 664.84375 386.773438 C 666.222656 387.164062 667.019531 388.601562 666.628906 389.976562 C 658.246094 419.449219 654.9375 448.601562 657.25 472.402344 L 783.074219 472.402344 C 785.234375 449.824219 781.46875 424.273438 770.976562 390.027344 C 770.554688 388.65625 771.328125 387.207031 772.699219 386.789062 C 774.066406 386.363281 775.519531 387.136719 775.9375 388.507812 C 787.003906 424.636719 790.722656 451.402344 787.988281 475.292969 Z M 787.722656 477.59375 "/><path fill-rule="nonzero" fill="rgb(100%, 76.078796%, 34.117126%)" fill-opacity="1" d="M 833.300781 283 C 833.300781 336.976562 782.574219 380.734375 720 380.734375 C 657.425781 380.734375 606.699219 336.976562 606.699219 283 C 606.699219 229.023438 643.382812 175.75 720 175.75 C 796.617188 175.75 833.300781 229.023438 833.300781 283 "/><path fill-rule="nonzero" fill="rgb(1.568604%, 0%, 0%)" fill-opacity="1" d="M 720 178.34375 C 685.285156 178.34375 656.417969 189.605469 636.511719 210.90625 C 618.960938 229.691406 609.292969 255.292969 609.292969 283 C 609.292969 335.457031 658.957031 378.136719 720 378.136719 C 781.042969 378.136719 830.707031 335.457031 830.707031 283 C 830.707031 255.292969 821.039062 229.691406 803.488281 210.90625 C 783.582031 189.605469 754.714844 178.34375 720 178.34375 M 720 383.328125 C 656.09375 383.328125 604.101562 338.320312 604.101562 283 C 604.101562 253.976562 614.265625 227.113281 632.722656 207.363281 C 653.632812 184.984375 683.8125 173.15625 720 173.15625 C 756.1875 173.15625 786.367188 184.984375 807.277344 207.363281 C 825.734375 227.113281 835.894531 253.976562 835.894531 283 C 835.894531 338.320312 783.90625 383.328125 720 383.328125 "/><path fill-rule="nonzero" fill="rgb(1.568604%, 0%, 0%)" fill-opacity="1" d="M 741.277344 311.617188 C 729.777344 311.617188 723.460938 307.671875 720 303.53125 C 716.539062 307.671875 710.222656 311.617188 698.722656 311.617188 C 690.589844 311.617188 682.976562 308.097656 678.355469 302.199219 C 677.175781 300.695312 677.441406 298.519531 678.945312 297.34375 C 680.453125 296.164062 682.625 296.429688 683.804688 297.933594 C 687.121094 302.171875 692.699219 304.699219 698.722656 304.699219 C 708.453125 304.699219 714.519531 301.613281 716.753906 295.527344 C 717.253906 294.167969 718.546875 293.261719 720 293.261719 C 721.453125 293.261719 722.746094 294.167969 723.25 295.527344 C 725.480469 301.613281 731.546875 304.699219 741.277344 304.699219 C 747.300781 304.699219 752.878906 302.171875 756.195312 297.933594 C 757.375 296.429688 759.546875 296.164062 761.054688 297.34375 C 762.558594 298.519531 762.824219 300.695312 761.644531 302.199219 C 757.023438 308.097656 749.414062 311.617188 741.277344 311.617188 "/><path fill-rule="nonzero" fill="rgb(1.568604%, 0%, 0%)" fill-opacity="1" d="M 695.5 272.546875 C 695.5 276.648438 692.984375 279.972656 689.878906 279.972656 C 686.773438 279.972656 684.257812 276.648438 684.257812 272.546875 C 684.257812 268.445312 686.773438 265.117188 689.878906 265.117188 C 692.984375 265.117188 695.5 268.445312 695.5 272.546875 "/><path fill-rule="nonzero" fill="rgb(1.568604%, 0%, 0%)" fill-opacity="1" d="M 689.878906 267.714844 C 688.445312 267.714844 686.851562 269.699219 686.851562 272.546875 C 686.851562 275.394531 688.445312 277.378906 689.878906 277.378906 C 691.308594 277.378906 692.902344 275.394531 692.902344 272.546875 C 692.902344 269.699219 691.308594 267.714844 689.878906 267.714844 M 689.878906 282.566406 C 685.347656 282.566406 681.660156 278.074219 681.660156 272.546875 C 681.660156 267.019531 685.347656 262.523438 689.878906 262.523438 C 694.40625 262.523438 698.09375 267.019531 698.09375 272.546875 C 698.09375 278.074219 694.40625 282.566406 689.878906 282.566406 "/><path fill-rule="nonzero" fill="rgb(1.568604%, 0%, 0%)" fill-opacity="1" d="M 755.742188 272.546875 C 755.742188 276.648438 753.226562 279.972656 750.121094 279.972656 C 747.015625 279.972656 744.5 276.648438 744.5 272.546875 C 744.5 268.445312 747.015625 265.117188 750.121094 265.117188 C 753.226562 265.117188 755.742188 268.445312 755.742188 272.546875 "/><path fill-rule="nonzero" fill="rgb(1.568604%, 0%, 0%)" fill-opacity="1" d="M 750.121094 267.714844 C 748.691406 267.714844 747.097656 269.699219 747.097656 272.546875 C 747.097656 275.394531 748.691406 277.378906 750.121094 277.378906 C 751.554688 277.378906 753.148438 275.394531 753.148438 272.546875 C 753.148438 269.699219 751.554688 267.714844 750.121094 267.714844 M 750.121094 282.566406 C 745.59375 282.566406 741.90625 278.074219 741.90625 272.546875 C 741.90625 267.019531 745.59375 262.523438 750.121094 262.523438 C 754.652344 262.523438 758.339844 267.019531 758.339844 272.546875 C 758.339844 278.074219 754.652344 282.566406 750.121094 282.566406 "/><path fill-rule="nonzero" fill="rgb(1.568604%, 0%, 0%)" fill-opacity="1" d="M 694.300781 247.28125 L 674.210938 247.28125 C 672.300781 247.28125 670.75 245.734375 670.75 243.820312 C 670.75 241.914062 672.300781 240.363281 674.210938 240.363281 L 694.300781 240.363281 C 696.214844 240.363281 697.761719 241.914062 697.761719 243.820312 C 697.761719 245.734375 696.214844 247.28125 694.300781 247.28125 "/><path fill-rule="nonzero" fill="rgb(1.568604%, 0%, 0%)" fill-opacity="1" d="M 765.789062 247.28125 L 745.695312 247.28125 C 743.785156 247.28125 742.238281 245.734375 742.238281 243.820312 C 742.238281 241.914062 743.785156 240.363281 745.695312 240.363281 L 765.789062 240.363281 C 767.699219 240.363281 769.25 241.914062 769.25 243.820312 C 769.25 245.734375 767.699219 247.28125 765.789062 247.28125 "/><path fill-rule="nonzero" fill="rgb(28.234863%, 70.980835%, 100%)" fill-opacity="1" d="M 663.746094 181.425781 C 667.335938 192.566406 677.582031 198.449219 687.125 194.847656 C 693.664062 192.382812 700.8125 194.328125 705.804688 199.933594 C 713.09375 208.113281 724.464844 208.113281 731.75 199.933594 C 736.746094 194.328125 743.894531 192.382812 750.433594 194.847656 C 759.976562 198.449219 770.222656 192.566406 773.808594 181.425781 C 773.808594 181.425781 763.710938 147.707031 718.777344 147.707031 C 673.847656 147.707031 663.746094 181.425781 663.746094 181.425781 "/><path fill-rule="nonzero" fill="rgb(28.234863%, 70.980835%, 100%)" fill-opacity="1" d="M 773.808594 181.425781 C 770.222656 192.566406 759.976562 198.449219 750.433594 194.847656 C 743.894531 192.382812 736.746094 194.328125 731.75 199.933594 C 724.464844 208.113281 713.09375 208.113281 705.804688 199.933594 C 700.808594 194.328125 693.664062 192.382812 687.121094 194.847656 C 677.578125 198.449219 667.335938 192.566406 663.746094 181.425781 "/><path fill-rule="nonzero" fill="rgb(1.568604%, 0%, 0%)" fill-opacity="1" d="M 718.78125 208.660156 C 713.1875 208.660156 707.890625 206.175781 703.867188 201.660156 C 699.609375 196.878906 693.542969 195.199219 688.039062 197.277344 C 683.183594 199.109375 677.914062 198.867188 673.199219 196.597656 C 667.714844 193.949219 663.367188 188.714844 661.277344 182.222656 C 660.835938 180.859375 661.585938 179.394531 662.949219 178.957031 C 664.308594 178.515625 665.773438 179.265625 666.214844 180.632812 C 667.875 185.773438 671.238281 189.890625 675.453125 191.921875 C 678.921875 193.59375 682.640625 193.765625 686.207031 192.421875 C 693.769531 189.566406 702.023438 191.785156 707.742188 198.207031 C 710.769531 201.601562 714.6875 203.472656 718.777344 203.472656 C 722.871094 203.472656 726.789062 201.601562 729.8125 198.207031 C 735.535156 191.785156 743.785156 189.566406 751.347656 192.421875 C 754.917969 193.765625 758.636719 193.59375 762.105469 191.921875 C 766.316406 189.890625 769.683594 185.773438 771.339844 180.632812 C 771.78125 179.265625 773.246094 178.515625 774.605469 178.957031 C 775.96875 179.394531 776.71875 180.859375 776.28125 182.222656 C 774.1875 188.714844 769.84375 193.949219 764.359375 196.59375 C 759.644531 198.867188 754.375 199.109375 749.519531 197.277344 C 744.011719 195.199219 737.945312 196.878906 733.6875 201.660156 C 729.664062 206.175781 724.371094 208.660156 718.78125 208.660156 "/><path fill-rule="nonzero" fill="rgb(1.568604%, 0%, 0%)" fill-opacity="1" d="M 808.171875 286.746094 C 808.171875 288.65625 806.621094 290.207031 804.714844 290.207031 C 802.804688 290.207031 801.253906 288.65625 801.253906 286.746094 C 801.253906 284.835938 802.804688 283.285156 804.714844 283.285156 C 806.621094 283.285156 808.171875 284.835938 808.171875 286.746094 "/><path fill-rule="nonzero" fill="rgb(1.568604%, 0%, 0%)" fill-opacity="1" d="M 799.96875 298.984375 C 799.96875 300.894531 798.417969 302.445312 796.507812 302.445312 C 794.597656 302.445312 793.046875 300.894531 793.046875 298.984375 C 793.046875 297.074219 794.597656 295.523438 796.507812 295.523438 C 798.417969 295.523438 799.96875 297.074219 799.96875 298.984375 "/><path fill-rule="nonzero" fill="rgb(1.568604%, 0%, 0%)" fill-opacity="1" d="M 809.457031 298.984375 C 809.457031 300.894531 811.007812 302.445312 812.917969 302.445312 C 814.828125 302.445312 816.378906 300.894531 816.378906 298.984375 C 816.378906 297.074219 814.828125 295.523438 812.917969 295.523438 C 811.007812 295.523438 809.457031 297.074219 809.457031 298.984375 "/><path fill-rule="nonzero" fill="rgb(1.568604%, 0%, 0%)" fill-opacity="1" d="M 638.746094 286.746094 C 638.746094 288.65625 637.199219 290.207031 635.285156 290.207031 C 633.378906 290.207031 631.828125 288.65625 631.828125 286.746094 C 631.828125 284.835938 633.378906 283.285156 635.285156 283.285156 C 637.199219 283.285156 638.746094 284.835938 638.746094 286.746094 "/><path fill-rule="nonzero" fill="rgb(1.568604%, 0%, 0%)" fill-opacity="1" d="M 630.542969 298.984375 C 630.542969 300.894531 628.992188 302.445312 627.082031 302.445312 C 625.171875 302.445312 623.625 300.894531 623.625 298.984375 C 623.625 297.074219 625.171875 295.523438 627.082031 295.523438 C 628.992188 295.523438 630.542969 297.074219 630.542969 298.984375 "/><path fill-rule="nonzero" fill="rgb(1.568604%, 0%, 0%)" fill-opacity="1" d="M 640.03125 298.984375 C 640.03125 300.894531 641.582031 302.445312 643.492188 302.445312 C 645.402344 302.445312 646.953125 300.894531 646.953125 298.984375 C 646.953125 297.074219 645.402344 295.523438 643.492188 295.523438 C 641.582031 295.523438 640.03125 297.074219 640.03125 298.984375 "/><path fill-rule="nonzero" fill="rgb(1.568604%, 0%, 0%)" fill-opacity="1" d="M 720.226562 503.777344 C 720.207031 503.78125 720.191406 503.78125 720.167969 503.777344 L 720.160156 503.777344 C 712.226562 503.773438 704.296875 503.074219 696.597656 501.691406 C 695.1875 501.4375 694.246094 500.089844 694.5 498.679688 C 694.753906 497.269531 696.097656 496.328125 697.511719 496.582031 C 712.339844 499.242188 728.054688 499.242188 742.882812 496.582031 C 744.289062 496.328125 745.640625 497.269531 745.898438 498.679688 C 746.148438 500.089844 745.210938 501.4375 743.800781 501.691406 C 736.097656 503.074219 728.171875 503.773438 720.238281 503.777344 Z M 720.226562 503.777344 "/><path fill-rule="nonzero" fill="rgb(0%, 29.803467%, 0%)" fill-opacity="1" d="M 736.175781 430.523438 C 736.175781 430.082031 736.175781 429.640625 736.179688 429.195312 C 736.1875 427.484375 736.195312 425.773438 736.203125 424.0625 C 736.21875 421.859375 736.238281 419.652344 736.238281 417.449219 C 736.238281 417.132812 736.347656 417.070312 736.636719 417.070312 C 743.632812 417.078125 750.628906 417.074219 757.625 417.085938 C 757.808594 417.085938 758.035156 417.167969 758.167969 417.292969 C 759.652344 418.664062 761.125 420.046875 762.589844 421.4375 C 762.714844 421.554688 762.800781 421.769531 762.804688 421.9375 C 762.816406 423.363281 762.808594 424.789062 762.785156 426.210938 C 762.785156 426.351562 762.703125 426.519531 762.601562 426.617188 C 762.039062 427.15625 761.460938 427.679688 760.863281 428.234375 C 761.445312 428.78125 762.019531 429.308594 762.574219 429.855469 C 762.675781 429.953125 762.765625 430.121094 762.765625 430.261719 C 762.757812 433.257812 762.734375 436.253906 762.714844 439.25 C 762.714844 439.285156 762.703125 439.316406 762.691406 439.375 L 754.585938 439.375 C 754.585938 438.859375 754.585938 438.347656 754.585938 437.835938 C 754.59375 436.191406 754.605469 434.550781 754.605469 432.910156 C 754.601562 432.800781 754.535156 432.664062 754.457031 432.589844 C 753.953125 432.101562 753.445312 431.621094 752.925781 431.152344 C 752.839844 431.074219 752.703125 431.015625 752.59375 431.015625 C 749.882812 431.007812 747.171875 431.011719 744.460938 431.011719 C 744.414062 431.011719 744.371094 431.027344 744.269531 431.046875 L 744.269531 439.378906 C 744.097656 439.386719 743.984375 439.398438 743.871094 439.398438 C 741.414062 439.398438 738.953125 439.394531 736.496094 439.40625 C 736.203125 439.40625 736.097656 439.34375 736.101562 439.027344 C 736.125 437.246094 736.125 435.46875 736.144531 433.6875 C 736.144531 433.558594 736.210938 433.398438 736.300781 433.304688 C 738.796875 430.730469 741.296875 428.164062 743.808594 425.605469 C 743.90625 425.503906 744.105469 425.449219 744.257812 425.449219 C 747.574219 425.441406 750.898438 425.441406 754.214844 425.441406 L 754.652344 425.441406 L 754.652344 422.644531 C 754.539062 422.636719 754.417969 422.617188 754.296875 422.617188 C 750.953125 422.617188 747.613281 422.613281 744.269531 422.625 C 744.097656 422.628906 743.886719 422.714844 743.769531 422.835938 C 741.328125 425.320312 738.902344 427.8125 736.480469 430.308594 C 736.394531 430.398438 736.367188 430.535156 736.3125 430.648438 C 736.265625 430.609375 736.222656 430.566406 736.175781 430.523438 "/><path fill-rule="nonzero" fill="rgb(0%, 0%, 27.842712%)" fill-opacity="1" d="M 704.523438 439.332031 C 705.070312 438.828125 705.613281 438.320312 706.160156 437.816406 C 707.519531 436.566406 708.875 435.308594 710.246094 434.070312 C 710.390625 433.941406 710.621094 433.847656 710.8125 433.847656 C 715.085938 433.832031 719.359375 433.832031 723.632812 433.84375 C 723.988281 433.847656 724.074219 433.746094 724.066406 433.402344 C 724.039062 432.625 724.058594 431.84375 724.058594 431.015625 L 723.605469 431.015625 C 719.367188 431.015625 715.128906 431.015625 710.890625 431.023438 C 710.632812 431.023438 710.429688 430.972656 710.246094 430.785156 C 709.917969 430.449219 709.570312 430.132812 709.203125 429.785156 C 709.796875 429.167969 710.375 428.566406 710.957031 427.96875 C 711.71875 427.1875 712.476562 426.402344 713.25 425.632812 C 713.355469 425.527344 713.542969 425.445312 713.691406 425.445312 C 718.148438 425.4375 722.601562 425.4375 727.058594 425.445312 C 727.210938 425.445312 727.398438 425.515625 727.507812 425.621094 C 728.988281 426.992188 730.457031 428.382812 731.941406 429.753906 C 732.152344 429.953125 732.234375 430.15625 732.230469 430.441406 C 732.207031 431.808594 732.214844 433.175781 732.1875 434.539062 C 732.183594 434.707031 732.09375 434.917969 731.96875 435.035156 C 730.476562 436.425781 728.972656 437.808594 727.460938 439.183594 C 727.328125 439.300781 727.125 439.398438 726.953125 439.398438 C 719.558594 439.40625 712.160156 439.40625 704.765625 439.40625 L 704.5625 439.40625 C 704.550781 439.382812 704.539062 439.359375 704.523438 439.332031 "/><path fill-rule="nonzero" fill="rgb(0%, 0%, 27.842712%)" fill-opacity="1" d="M 707.816406 428.492188 C 707.082031 427.804688 706.414062 427.191406 705.761719 426.5625 C 705.675781 426.484375 705.632812 426.320312 705.632812 426.195312 C 705.621094 424.757812 705.621094 423.324219 705.632812 421.890625 C 705.636719 421.742188 705.726562 421.554688 705.835938 421.453125 C 707.339844 420.050781 708.851562 418.660156 710.371094 417.277344 C 710.507812 417.15625 710.734375 417.070312 710.917969 417.070312 C 718.265625 417.058594 725.617188 417.0625 732.964844 417.0625 C 733.070312 417.0625 733.171875 417.070312 733.332031 417.078125 C 733.230469 417.183594 733.171875 417.257812 733.101562 417.324219 C 731.253906 419.027344 729.410156 420.734375 727.550781 422.425781 C 727.410156 422.554688 727.164062 422.625 726.96875 422.625 C 722.59375 422.636719 718.21875 422.636719 713.84375 422.628906 C 713.558594 422.628906 713.351562 422.699219 713.148438 422.910156 C 711.457031 424.660156 709.757812 426.398438 708.0625 428.144531 C 707.964844 428.242188 707.902344 428.367188 707.816406 428.492188 "/><path fill-rule="nonzero" fill="rgb(70.196533%, 0%, 0%)" fill-opacity="1" d="M 676.363281 439.398438 C 677.296875 438.539062 678.15625 437.746094 679.015625 436.953125 C 680.0625 435.992188 681.113281 435.03125 682.15625 434.0625 C 682.328125 433.898438 682.5 433.839844 682.734375 433.839844 C 686.972656 433.84375 691.214844 433.84375 695.453125 433.84375 L 695.925781 433.84375 L 695.925781 431.011719 L 695.484375 431.011719 C 691.246094 431.011719 687.007812 431.007812 682.765625 431.015625 C 682.519531 431.015625 682.335938 430.957031 682.160156 430.777344 C 681.828125 430.445312 681.476562 430.132812 681.109375 429.785156 C 681.644531 429.234375 682.171875 428.691406 682.699219 428.152344 C 683.523438 427.304688 684.347656 426.453125 685.183594 425.617188 C 685.28125 425.519531 685.457031 425.449219 685.59375 425.449219 C 690.050781 425.441406 694.507812 425.441406 698.96875 425.449219 C 699.109375 425.449219 699.28125 425.515625 699.386719 425.609375 C 700.910156 427.023438 702.429688 428.441406 703.9375 429.867188 C 704.039062 429.964844 704.105469 430.144531 704.105469 430.289062 C 704.117188 431.710938 704.117188 433.136719 704.105469 434.5625 C 704.105469 434.699219 704.03125 434.878906 703.925781 434.972656 C 702.390625 436.402344 700.84375 437.828125 699.289062 439.238281 C 699.171875 439.34375 698.960938 439.394531 698.792969 439.394531 C 692.328125 439.398438 685.859375 439.398438 679.390625 439.398438 Z M 676.363281 439.398438 "/><path fill-rule="nonzero" fill="rgb(70.196533%, 0%, 0%)" fill-opacity="1" d="M 679.664062 428.433594 C 678.964844 427.777344 678.292969 427.152344 677.632812 426.515625 C 677.5625 426.449219 677.539062 426.3125 677.535156 426.207031 C 677.535156 424.761719 677.535156 423.3125 677.550781 421.863281 C 677.550781 421.738281 677.625 421.574219 677.71875 421.488281 C 679.25 420.066406 680.785156 418.648438 682.332031 417.242188 C 682.429688 417.148438 682.589844 417.082031 682.722656 417.082031 C 690.15625 417.074219 697.589844 417.074219 705.019531 417.078125 C 705.066406 417.078125 705.109375 417.085938 705.195312 417.097656 C 705.132812 417.175781 705.089844 417.238281 705.039062 417.289062 C 703.179688 419 701.324219 420.714844 699.457031 422.410156 C 699.316406 422.539062 699.070312 422.609375 698.875 422.609375 C 694.484375 422.621094 690.097656 422.621094 685.710938 422.613281 C 685.433594 422.613281 685.25 422.695312 685.054688 422.894531 C 683.277344 424.738281 681.484375 426.566406 679.664062 428.433594 "/>
</svg>
